<?xml version="1.0" standalone="no"?>
<!DOCTYPE svg PUBLIC "-//W3C//DTD SVG 20010904//EN"
 "http://www.w3.org/TR/2001/REC-SVG-20010904/DTD/svg10.dtd">
<svg version="1.0" xmlns="http://www.w3.org/2000/svg"
 width="332.000000pt" height="332.000000pt" viewBox="0 0 332.000000 332.000000"
 preserveAspectRatio="xMidYMid meet">
<metadata>
Created by potrace 1.14, written by Peter Selinger 2001-2017
</metadata>
<g transform="translate(0.000000,332.000000) scale(0.100000,-0.100000)"
fill="#000000" stroke="none">
<path d="M1519 3315 c-2 -2 -31 -6 -64 -9 -235 -22 -509 -126 -734 -279 -120
-82 -305 -259 -393 -377 -168 -226 -273 -489 -316 -785 -9 -65 -9 -323 0 -400
18 -150 51 -278 105 -415 155 -385 441 -695 818 -883 69 -34 189 -81 253 -98
87 -24 110 -29 142 -34 19 -3 41 -8 48 -10 55 -19 356 -27 482 -13 341 38 693
206 948 453 260 252 416 543 488 910 26 130 25 436 -1 576 -47 252 -165 520
-312 712 -64 83 -232 252 -313 313 -227 174 -460 272 -780 329 -40 7 -365 16
-371 10z m-269 -310 c194 -18 378 -101 513 -232 135 -131 224 -347 231 -559 9
-285 -107 -541 -423 -936 -186 -232 -248 -339 -277 -478 -42 -202 3 -358 145
-501 71 -71 180 -146 241 -164 14 -4 30 -11 35 -15 14 -10 163 -49 232 -60 52
-8 48 -9 -37 -5 -146 7 -225 24 -336 75 -190 86 -322 233 -375 418 -32 112
-15 313 37 432 52 121 94 187 247 388 194 256 290 418 341 575 33 102 41 151
40 267 -2 439 -336 728 -844 732 -176 1 -374 -42 -500 -109 l-45 -24 30 26
c93 80 302 155 475 171 41 3 76 7 77 8 4 3 129 -3 193 -9z m-948 -754 c238
-257 312 -715 178 -1110 -39 -115 -133 -278 -186 -322 -16 -13 -17 -12 -10 6
88 216 131 444 130 700 0 211 -21 348 -84 535 -23 70 -103 235 -126 261 -8 8
-14 19 -14 23 0 14 57 -34 112 -93z m2852 -13 c-4 -7 -24 -38 -43 -68 -88
-135 -171 -334 -197 -475 -50 -269 -51 -500 -3 -752 11 -56 25 -119 33 -140 7
-21 16 -51 20 -68 6 -27 3 -24 -29 20 -67 91 -141 260 -159 361 -2 16 -9 52
-15 79 -16 82 -11 338 9 431 58 267 183 480 355 602 35 25 39 26 29 10z"/>
</g>
</svg>
